<?xml version="1.0" encoding="UTF-8" standalone="no"?>
<!DOCTYPE svg PUBLIC "-//W3C//DTD SVG 1.1//EN" "http://www.w3.org/Graphics/SVG/1.1/DTD/svg11.dtd">
<!-- Created with Vectornator (http://vectornator.io/) -->
<svg height="100%" stroke-miterlimit="10" style="fill-rule:nonzero;clip-rule:evenodd;stroke-linecap:round;stroke-linejoin:round;" version="1.1" viewBox="-52.2512 -90.6004 104.502 181.201" width="100%" xml:space="preserve" xmlns="http://www.w3.org/2000/svg" xmlns:vectornator="http://vectornator.io" xmlns:xlink="http://www.w3.org/1999/xlink">
<defs/>
<g id="Layer">
<path d="M6.33975-23.135C20.2268-23.135 34.1388-23.9583 48.001-23.135C49.5077-23.0455 51.1078-21.8496 51.6237-20.4454C52.4491-18.1985 52.4717-15.5116 51.6237-13.2731C46.07 1.38741 39.0283 15.4529 32.6044 29.7608C24.5407 47.7212 16.6889 65.8047 8.15111 83.5532C7.28043 85.3631 7.24543 88.0358 5.43407 88.9324C1.91343 90.6749-6.23341 91.9309-6.33975 88.0358C-6.92701 66.5268-6.33975 45.002-6.33975 23.485C-20.2268 23.485-34.1388 24.3084-48.001 23.485C-49.5077 23.3955-51.1078 22.1997-51.6237 20.7954C-52.4491 18.5486-52.4717 15.8617-51.6237 13.6231C-46.07-1.03735-39.0283-15.1029-32.6044-29.4108C-24.5488-47.3531-17.0234-65.6376-8.15111-83.2031C-7.06262-85.3581-6.70538-88.4014-4.52839-89.4789C-1.24344-91.1048 6.24053-91.3201 6.33975-87.6858C6.92701-66.1767 6.33975-44.6519 6.33975-23.135Z" fill="#ffc106" fill-opacity="0.937255" fill-rule="nonzero" opacity="1" stroke="none"/>
</g>
</svg>
