<svg width="872" height="153" viewBox="0 0 872 153" fill="none" xmlns="http://www.w3.org/2000/svg">
<g clip-path="url(#clip0_99_92)">
<path d="M442.173 140.448L436.567 90.1365C436.503 89.5659 436.414 88.4375 435.777 88.4375H425.559L423.61 98.5681L417.979 127.16L415.482 140.295C415.125 142.197 413.367 143.174 411.456 143.174H394.23C392.179 143.199 386.522 143.681 385.338 142.273C384.764 141.589 384.56 140.701 384.777 139.623L391.224 107.621L405.773 34.7791L411.659 6.00993C411.952 4.5645 413.061 2.05402 414.781 2.05402L455.321 2.11741C460.953 2.11741 466.329 3.01764 471.642 4.57718C476.343 5.95921 480.624 8.35558 483.707 12.1467C487.466 16.7619 489.504 22.4422 489.95 28.4141C490.778 39.762 488.752 50.907 484.408 61.342C480.165 70.2808 474.585 76.0245 465.679 80.6017L469.514 110.411L473.566 139.636C473.719 140.701 473.617 141.551 472.98 142.235C472.381 142.882 471.604 143.072 470.533 143.085L453.945 143.25L445.728 143.186C444.301 143.186 442.39 142.362 442.173 140.435V140.448ZM455.487 27.8182C451.728 25.4218 442.772 26.5883 438.045 26.5502L430.579 64.7527C440.619 65.5642 452.136 64.1061 456.251 53.557C458.557 47.6485 462.112 32.1925 455.487 27.8182Z" fill="white"/>
<path d="M578.739 102.854C574.241 121.644 563.59 138.178 544.084 143.453C535.051 145.9 526.018 146.077 516.858 144.289C509.29 142.806 502.614 138.913 497.76 132.954C493.288 127.451 491.275 120.668 491.033 113.631C490.702 108.521 490.804 103.767 491.823 98.6696L502.334 46.6975C504.754 34.703 508.844 23.5453 517.113 14.3909C522.693 8.21614 530.006 3.91789 538.045 1.76242C548.352 -1.00165 562.8 -0.583231 572.598 3.53751C581.822 7.41735 587.899 15.2785 589.797 24.9781C590.995 31.1021 590.97 37.1881 590.333 43.3756C589.976 46.837 589.657 49.9941 589.033 53.4556C586.039 70.078 582.663 86.4215 578.739 102.841V102.854ZM531.357 119.641C540.887 119.755 545.193 112.82 547.359 104.806C548.913 99.1007 550.187 93.6106 551.334 87.7528L558.762 49.7659C559.781 44.5674 560.329 39.6733 559.87 34.4621C559.577 31.0514 558.163 27.5646 554.812 26.1699C550.952 24.5596 546.276 25.0415 542.657 27.0828C537.179 30.1765 534.695 38.3546 533.433 44.1871L530.032 59.9346L522.82 96.4888C521.738 101.979 521.126 106.987 522.12 112.338C522.973 116.915 526.643 119.603 531.357 119.654V119.641Z" fill="white"/>
<path d="M672.356 2.1428L697.022 2.04137C698.525 2.04137 699.888 3.36 699.57 4.95758L689.683 54.1276L683.275 86.5103C681.542 95.2589 679.924 103.665 677.516 112.236C673.503 126.475 664.368 138.051 649.958 142.692C641.957 145.266 633.778 145.912 625.42 145.316C612.144 144.353 598.397 138.102 595.123 124.18C592.167 111.653 595.594 98.7203 598.053 86.282L603.29 59.7444L608.016 35.8188L614.196 5.85781C614.68 3.53751 616.425 2.02869 618.744 2.02869L642.085 2.0794C642.989 2.0794 643.843 2.63729 644.2 3.15714C644.709 3.89253 644.531 4.61525 644.352 5.51547L639.931 27.4759L635.128 52.3144L626.872 94.8659C625.917 99.7854 624.019 107.152 624.872 111.805C625.356 114.506 626.694 117.156 629.319 118.411C633.23 120.275 638.135 120.009 641.804 117.625C648.57 113.225 649.423 103.475 651.003 95.7788L655.348 74.7059L660.928 46.5327L669.107 6.14943C669.413 4.6406 670.534 2.16816 672.343 2.15548L672.356 2.1428Z" fill="white"/>
<path d="M849.895 82.567L816.005 82.6304L809.049 118.145L847.908 118.196C849.577 118.196 850.316 120.123 849.959 121.505L846.264 139.37C845.857 141.373 844.774 143.034 842.48 143.034L799.761 143.11L777.669 143.199C776.535 143.199 775.491 142.819 774.841 142.096C774.076 141.259 773.974 140.232 774.229 138.926L783.313 93.674L790.958 55.218L795.124 34.5382L801.405 4.95759C801.749 3.34733 803.163 1.88922 804.896 1.88922L869.528 2.01601C871.363 2.01601 872.28 3.82914 871.924 5.42672L868.038 23.0508C867.579 25.6881 865.77 26.7278 863.247 26.7151L827.497 26.4742C824.911 37.6066 823.153 46.837 821.025 58.0581L836.467 58.1722L854.24 58.2737C855.654 58.2737 856.915 59.6684 856.622 61.0884L852.826 79.4479C852.545 80.7793 851.603 82.5417 849.908 82.5543L849.895 82.567Z" fill="white"/>
<path d="M716.91 138.812C713.278 143.478 710.144 148.131 705.914 152.366L710.807 137.81L720.235 111.628L729.472 84.8746H705.239C703.672 84.8746 703.226 82.7699 703.761 81.6161L708.412 69.6215L718.668 43.3375L724.86 27.0828C722.605 26.8039 720.604 26.9307 718.528 26.9053L708.093 26.8165C707.201 26.8165 706.411 26.6644 705.965 26.0178C705.583 25.4852 705.303 24.6484 705.481 23.8243L709.38 5.76906C709.66 4.47578 710.654 1.97798 712.361 1.9653L751.844 1.88922L787.097 2.01601C787.862 2.01601 788.69 2.58658 789.021 2.99231C789.531 3.62627 789.594 4.3997 789.416 5.26189L785.657 23.0635C785.135 25.5613 783.453 26.7785 780.892 26.7785L759.82 26.7531C755.131 38.7984 749.869 48.7009 745.308 60.9363L771.63 61.025C772.433 61.025 773.044 61.4942 773.286 61.9379C773.643 62.5973 773.427 63.2946 773.044 63.9159C770.292 68.2902 767.171 72.0813 764.05 76.2528L742.301 105.39L731.829 119.451L724.261 129.404L716.922 138.812H716.91Z" fill="white"/>
<path d="M87.6166 124.928C78.6855 138.533 63.3076 142.882 47.7769 143.022L31.8258 143.161C30.5008 143.161 29.3287 143.161 27.9782 143.161L3.42717 143.136C2.20407 143.136 1.35046 142.971 0.738914 142.185C0.0509254 141.297 -0.140182 140.359 0.0891471 139.129L1.22305 132.916L9.5681 92.8879L17.8749 51.6678L20.3593 40.0917L27.3157 5.22386C27.6469 3.56289 29.3414 2.01602 30.9467 2.0287L71.7928 2.13014C77.5388 2.14282 82.9663 2.75142 88.4192 4.38704C98.2294 7.34129 104.689 14.7586 105.746 25.0415C106.702 34.3353 105.135 43.7306 101.3 52.2384C98.5097 58.4258 93.8212 63.2566 88.088 66.5659C86.6356 67.7197 85.1449 68.1127 83.1574 68.8608C88.4065 72.6012 92.5472 77.2291 94.5347 83.201C97.414 91.8482 96.0126 103.348 93.6174 111.945C92.2924 116.687 90.4068 120.706 87.6421 124.928H87.6166ZM70.2003 53.4936C74.1116 48.3839 75.9208 36.5288 73.602 30.7851C72.5445 28.7945 70.4678 26.9053 68.0344 26.639C63.3076 26.0938 58.6574 26.1699 53.7013 26.3601L49.9556 44.7069L47.382 58.0201C55.3703 57.906 64.5053 59.6937 70.2003 53.4936ZM64.6581 100.394C65.7666 94.4601 66.7221 85.6988 59.9314 83.0362C57.4725 82.0725 54.8989 81.9838 52.2616 81.9458L42.324 81.8063C42.0819 84.583 41.3048 86.9414 40.7697 89.5913L35.0109 118.284L48.1209 118.487C50.3123 118.525 52.3508 118.145 54.3765 117.41C61.6259 113.745 63.2694 107.862 64.6709 100.407L64.6581 100.394Z" fill="white"/>
<path d="M162.824 142.92C151.51 146.648 138.337 147.066 127.1 142.628C117.965 139.027 112.015 133.461 109.658 123.673C106.982 112.541 107.314 104.134 109.441 92.9132L111.225 83.5053L118.105 50.9831C120.576 39.2675 123.634 25.8149 131.622 16.6224C133.903 13.9978 136.056 11.5 138.859 9.48404C142.745 6.69462 146.86 4.26021 151.498 2.76406C161.83 -0.595928 172.813 -0.735399 183.362 1.63561C188.636 2.81478 193.057 5.10972 197.122 8.62186C206.932 17.0789 207.849 31.5459 206.919 43.7306C206.282 52.0735 204.855 59.9853 203.122 68.1127L200.944 78.3829C199.249 86.3708 197.873 94.2065 195.72 102.068C194.675 105.909 193.389 109.371 192.127 113.137C190.203 118.918 187.031 123.939 183.273 128.694C177.96 135.414 171.029 140.207 162.811 142.92H162.824ZM161.04 112.274C163.601 107.101 165.003 101.801 166.137 96.2225L170.659 73.9578C172.609 64.347 174.711 55.1038 176.1 45.4042C176.737 40.9412 177.068 36.5795 176.405 32.2432C175.692 27.5266 172.086 25.1682 167.538 25.0921C161.754 24.9907 156.556 27.5773 154.097 32.9913C153.205 34.9692 152.262 36.9599 151.702 39.2168C148.44 52.3651 145.879 65.4247 143.267 78.7506L139.037 100.293C138.26 104.261 137.916 108.141 138.642 111.983C139.496 116.484 142.643 119.147 147.039 119.628C152.963 120.275 158.276 117.866 161.053 112.274H161.04Z" fill="white"/>
<path d="M321.979 104.819L315.838 112.908L303.186 129.493L297.389 137.113L285.197 153L291.325 135.008L297.67 116.497L308.601 84.2534C300.562 84.1139 293.019 84.4943 285.35 84.7986C284.496 84.8366 283.744 84.7225 283.324 84.2534C282.903 83.7842 282.598 82.6177 282.916 81.8063L289.707 64.4992L293.414 55.1292L303.556 29.3144C303.849 28.5536 304.078 27.6027 303.696 26.8673L287.261 26.7785C285.821 26.7785 284.496 25.5867 284.891 24.0018C286.382 17.9538 288.012 12.1213 290.306 6.28891C291.07 4.34899 292.816 2.04138 295.122 2.04138L369.514 1.99066C370.303 1.99066 371.068 2.21889 371.374 2.68802C371.654 3.13179 372.151 4.07005 371.909 4.75473L367.157 18.7272C366.277 21.2884 365.233 23.7482 363.436 25.7388C362.162 27.1462 360.315 26.9053 358.531 26.8799L339.306 26.6898C337.586 29.8849 336.503 32.9406 335.14 36.1484L329.355 49.7406L326.068 58.299C325.839 58.9076 325.865 59.4909 326.043 59.8586C326.387 60.5432 327.024 60.7334 327.801 60.7461L338.083 60.8602L352.39 60.9743C352.989 60.9743 353.537 61.0758 353.677 61.5829C353.779 61.9253 353.805 62.5212 353.473 62.965L342.899 77.1784L329.406 94.8912L321.966 104.806L321.979 104.819Z" fill="white"/>
<path d="M273.998 139.167C273.565 141.221 272.15 142.92 269.946 142.933L244.771 143.047L206.893 142.945C205.288 142.945 204.829 140.232 205.059 139.066L208.524 121.264L213.557 96.717L219.749 65.9699L224.526 42.7923L227.839 26.0177L232.158 4.99562C232.425 3.6643 233.508 2.00332 234.974 2.016L259.168 2.06672C260.149 2.06672 261.066 2.29494 261.639 2.89087C262.251 3.52483 262.633 4.37434 262.417 5.45207L256.569 34.2465L248.096 76.3162L246.364 85.4071L242.58 103.881C241.713 108.128 240.681 112.084 240.197 116.636L273.832 117.143C275.578 117.169 277.667 117.841 277.501 119.958C277.285 122.76 274.8 135.363 273.998 139.142V139.167Z" fill="white"/>
</g>
<defs>
<clipPath id="clip0_99_92">
<rect width="872" height="153" fill="white"/>
</clipPath>
</defs>
</svg>
